<svg width="162" height="49" viewBox="0 0 162 49" fill="none" xmlns="http://www.w3.org/2000/svg">
<path d="M27 33.6C25.335 33.6 24 35.024 24 36.8C24 37.6487 24.3161 38.4626 24.8787 39.0627C25.4413 39.6629 26.2043 40 27 40C27.7956 40 28.5587 39.6629 29.1213 39.0627C29.6839 38.4626 30 37.6487 30 36.8C30 35.9513 29.6839 35.1374 29.1213 34.5373C28.5587 33.9371 27.7956 33.6 27 33.6ZM3 8V11.2H6L11.4 23.344L9.36 27.264C9.135 27.712 9 28.24 9 28.8C9 29.6487 9.31607 30.4626 9.87868 31.0627C10.4413 31.6629 11.2044 32 12 32H30V28.8H12.63C12.5305 28.8 12.4352 28.7579 12.3648 28.6828C12.2945 28.6078 12.255 28.5061 12.255 28.4C12.255 28.32 12.27 28.256 12.3 28.208L13.65 25.6H24.825C25.95 25.6 26.94 24.928 27.45 23.952L32.82 13.6C32.925 13.344 33 13.072 33 12.8C33 12.3757 32.842 11.9687 32.5607 11.6686C32.2794 11.3686 31.8978 11.2 31.5 11.2H9.315L7.905 8M12 33.6C10.335 33.6 9 35.024 9 36.8C9 37.6487 9.31607 38.4626 9.87868 39.0627C10.4413 39.6629 11.2044 40 12 40C12.7956 40 13.5587 39.6629 14.1213 39.0627C14.6839 38.4626 15 37.6487 15 36.8C15 35.9513 14.6839 35.1374 14.1213 34.5373C13.5587 33.9371 12.7956 33.6 12 33.6Z" fill="url(#paint0_linear_2_4)"/>
<path d="M41.662 33L46.368 15.84H51.802L52.998 25.642L57.834 15.84H62.384L62.852 28.684C62.9213 30.3827 63.372 31.492 64.204 32.012C64.0133 32.3587 63.6407 32.6967 63.086 33.026C62.5313 33.3553 61.8813 33.52 61.136 33.52C60.408 33.52 59.8273 33.416 59.394 33.208C58.9607 33 58.6227 32.7227 58.38 32.376C57.9467 31.752 57.73 30.842 57.73 29.646V21.612L52.608 33H49.384L47.564 21.326L44.652 33H41.662ZM76.421 28.996C76.7503 29.412 76.915 29.958 76.915 30.634C76.915 31.57 76.5683 32.2893 75.875 32.792C75.1816 33.2773 74.289 33.52 73.197 33.52C72.573 33.52 71.7843 33.4507 70.831 33.312C68.959 33.0173 67.737 32.87 67.165 32.87C66.593 32.87 66.1943 32.8873 65.969 32.922C65.7436 32.9393 65.449 32.9653 65.085 33L68.283 15.84H79.489C79.489 16.8973 79.229 17.7033 78.709 18.258C78.2063 18.8127 77.4523 19.09 76.447 19.09C75.4416 19.09 74.4276 18.856 73.405 18.388L72.599 22.938H77.227C77.227 23.8567 77.0016 24.576 76.551 25.096C76.1003 25.5987 75.4936 25.85 74.731 25.85C73.9856 25.85 73.379 25.7633 72.911 25.59C72.443 25.4167 72.183 25.304 72.131 25.252L71.195 30.166C71.611 30.218 72.209 30.244 72.989 30.244C74.3236 30.244 75.4676 29.828 76.421 28.996ZM92.8812 27.618C93.3319 27.9473 93.5572 28.4673 93.5572 29.178C93.5572 29.8713 93.4012 30.4693 93.0892 30.972C92.7945 31.4573 92.3525 31.8907 91.7632 32.272C90.4979 33.0867 88.7559 33.494 86.5372 33.494C84.3359 33.494 82.6285 32.922 81.4152 31.778C80.2192 30.6167 79.6212 29.0133 79.6212 26.968C79.6212 24.0733 80.3752 21.5253 81.8832 19.324C83.0272 17.6947 84.6219 16.5333 86.6672 15.84C87.7245 15.4933 88.7732 15.32 89.8132 15.32C90.8532 15.32 91.6939 15.3893 92.3352 15.528C92.9765 15.6667 93.5399 15.8747 94.0252 16.152C95.0825 16.7587 95.6112 17.5473 95.6112 18.518C95.6112 19.402 95.1952 20.1733 94.3632 20.832C93.6005 21.4213 92.9072 21.716 92.2832 21.716C91.6592 21.716 91.2172 21.6727 90.9572 21.586C91.0265 20.962 91.0612 20.4507 91.0612 20.052C91.0612 19.636 91.0525 19.2807 91.0352 18.986C91.0179 18.6913 90.9659 18.4053 90.8792 18.128C90.7059 17.4867 90.3505 17.166 89.8132 17.166C89.2932 17.166 88.7645 17.4173 88.2272 17.92C87.7072 18.4053 87.2219 19.064 86.7712 19.896C85.7485 21.7853 85.2372 23.848 85.2372 26.084C85.2372 27.1587 85.5405 28.008 86.1472 28.632C86.7539 29.2387 87.7072 29.542 89.0072 29.542C89.9779 29.542 90.9225 29.2213 91.8412 28.58C92.2399 28.3027 92.5865 27.982 92.8812 27.618ZM96.1015 26.656C96.1015 23.38 96.9509 20.7107 98.6495 18.648C100.452 16.412 102.922 15.294 106.06 15.294C108.33 15.294 110.038 15.8487 111.182 16.958C112.326 18.05 112.898 19.7573 112.898 22.08C112.898 25.616 111.996 28.4153 110.194 30.478C108.408 32.506 106.016 33.52 103.018 33.52C100.678 33.52 98.9355 32.9393 97.7915 31.778C96.6649 30.5993 96.1015 28.892 96.1015 26.656ZM102.94 21.274C102.16 24.394 101.77 27.1847 101.77 29.646C101.77 30.2353 101.865 30.7207 102.056 31.102C102.264 31.4833 102.628 31.674 103.148 31.674C103.685 31.674 104.118 31.5527 104.448 31.31C104.777 31.05 105.072 30.634 105.332 30.062C105.748 29.126 106.146 27.67 106.528 25.694C106.926 23.7007 107.143 22.2967 107.178 21.482C107.212 20.65 107.23 19.922 107.23 19.298C107.23 18.674 107.134 18.1627 106.944 17.764C106.753 17.3653 106.398 17.166 105.878 17.166C105.375 17.166 104.95 17.322 104.604 17.634C103.962 18.2233 103.408 19.4367 102.94 21.274ZM113.391 33L118.097 15.84H123.531L124.727 25.642L129.563 15.84H134.113L134.581 28.684C134.65 30.3827 135.101 31.492 135.933 32.012C135.742 32.3587 135.369 32.6967 134.815 33.026C134.26 33.3553 133.61 33.52 132.865 33.52C132.137 33.52 131.556 33.416 131.123 33.208C130.689 33 130.351 32.7227 130.109 32.376C129.675 31.752 129.459 30.842 129.459 29.646V21.612L124.337 33H121.113L119.293 21.326L116.381 33H113.391ZM136.267 33L140.973 15.84H146.407L147.603 25.642L152.439 15.84H156.989L157.457 28.684C157.527 30.3827 157.977 31.492 158.809 32.012C158.619 32.3587 158.246 32.6967 157.691 33.026C157.137 33.3553 156.487 33.52 155.741 33.52C155.013 33.52 154.433 33.416 153.999 33.208C153.566 33 153.228 32.7227 152.985 32.376C152.552 31.752 152.335 30.842 152.335 29.646V21.612L147.213 33H143.989L142.169 21.326L139.257 33H136.267Z" fill="black"/>
<defs>
<linearGradient id="paint0_linear_2_4" x1="8" y1="22.5" x2="38" y2="22.5" gradientUnits="userSpaceOnUse">
<stop stop-color="#059DFF"/>
<stop offset="0.203125" stop-color="#6549D5"/>
<stop offset="0.490337" stop-color="#E33FA1"/>
<stop offset="0.864583" stop-color="#FB5343"/>
</linearGradient>
</defs>
</svg>
