<svg width="30" height="32" viewBox="0 0 30 32" fill="none" xmlns="http://www.w3.org/2000/svg">
<path d="M24 25.6C22.335 25.6 21 27.024 21 28.8C21 29.6487 21.3161 30.4626 21.8787 31.0627C22.4413 31.6629 23.2043 32 24 32C24.7956 32 25.5587 31.6629 26.1213 31.0627C26.6839 30.4626 27 29.6487 27 28.8C27 27.9513 26.6839 27.1374 26.1213 26.5373C25.5587 25.9371 24.7956 25.6 24 25.6ZM0 0V3.2H3L8.4 15.344L6.36 19.264C6.135 19.712 6 20.24 6 20.8C6 21.6487 6.31607 22.4626 6.87868 23.0627C7.44129 23.6629 8.20435 24 9 24H27V20.8H9.63C9.53054 20.8 9.43516 20.7579 9.36483 20.6828C9.29451 20.6078 9.255 20.5061 9.255 20.4C9.255 20.32 9.27 20.256 9.3 20.208L10.65 17.6H21.825C22.95 17.6 23.94 16.928 24.45 15.952L29.82 5.6C29.925 5.344 30 5.072 30 4.8C30 4.37565 29.842 3.96869 29.5607 3.66863C29.2794 3.36857 28.8978 3.2 28.5 3.2H6.315L4.905 0M9 25.6C7.335 25.6 6 27.024 6 28.8C6 29.6487 6.31607 30.4626 6.87868 31.0627C7.44129 31.6629 8.20435 32 9 32C9.79565 32 10.5587 31.6629 11.1213 31.0627C11.6839 30.4626 12 29.6487 12 28.8C12 27.9513 11.6839 27.1374 11.1213 26.5373C10.5587 25.9371 9.79565 25.6 9 25.6Z" fill="url(#paint0_linear_133_3)"/>
<defs>
<linearGradient id="paint0_linear_133_3" x1="5" y1="14.5" x2="35" y2="14.5" gradientUnits="userSpaceOnUse">
<stop stop-color="#059DFF"/>
<stop offset="0.203125" stop-color="#6549D5"/>
<stop offset="0.490337" stop-color="#E33FA1"/>
<stop offset="0.864583" stop-color="#FB5343"/>
</linearGradient>
</defs>
</svg>
